<?xml version="1.0" encoding="UTF-8" standalone="no"?>
<svg
   id="svg8"
   version="1.1"
   viewBox="0 0 79.375999 79.375"
   height="79.375mm"
   width="79.375999mm"
   sodipodi:docname="wireguard-icon.svg"
   inkscape:version="1.1-dev (9017afb, 2021-01-01)"
   xmlns:inkscape="http://www.inkscape.org/namespaces/inkscape"
   xmlns:sodipodi="http://sodipodi.sourceforge.net/DTD/sodipodi-0.dtd"
   xmlns="http://www.w3.org/2000/svg"
   xmlns:svg="http://www.w3.org/2000/svg"
   xmlns:rdf="http://www.w3.org/1999/02/22-rdf-syntax-ns#"
   xmlns:cc="http://creativecommons.org/ns#"
   xmlns:dc="http://purl.org/dc/elements/1.1/">
  <sodipodi:namedview
     id="namedview10"
     pagecolor="#ffffff"
     bordercolor="#666666"
     borderopacity="1.0"
     objecttolerance="10.0"
     gridtolerance="10.0"
     guidetolerance="10.0"
     inkscape:pageshadow="2"
     inkscape:pageopacity="0.0"
     inkscape:pagecheckerboard="0"
     inkscape:document-units="mm"
     showgrid="false"
     fit-margin-top="0"
     fit-margin-left="0"
     fit-margin-right="0"
     fit-margin-bottom="0"
     inkscape:zoom="0.57775368"
     inkscape:cx="620.50665"
     inkscape:cy="167.0262"
     inkscape:window-width="1708"
     inkscape:window-height="739"
     inkscape:window-x="0"
     inkscape:window-y="25"
     inkscape:window-maximized="0"
     inkscape:current-layer="svg8" />
  <defs
     id="defs2" />
  <metadata
     id="metadata5">
    <rdf:RDF>
      <cc:Work
         rdf:about="">
        <dc:format>image/svg+xml</dc:format>
        <dc:type
           rdf:resource="http://purl.org/dc/dcmitype/StillImage" />
      </cc:Work>
    </rdf:RDF>
  </metadata>
  <path
     class="a"
     d="M 79.307599,38.512751 C 79.307599,38.512751 81.143702,0 38.815768,0 1.3825181,0 0.21305808,36.943771 0.21305808,36.943771 c 0,0 -5.50623998,42.43123 39.46524992,42.43123 43.132374,0 39.629291,-40.86225 39.629291,-40.86225 z m -52.334581,-13.4575 c 7.942,-4.858811 18.0885,-1.88916 21.8903,5.4176 0.72054,1.38478 0.81211,3.51658 0.35578,4.96941 -1.57548,5.01544 -5.29537,7.82823 -10.4013,9.02308 1.50527,-1.2887 2.70352,-2.75007 3.08478,-4.76911 a 6.9855292,6.9855292 0 0 0 -1.20187,-5.54461 7.08025,7.08025 0 0 0 -8.15208,-2.48422 c -3.14351,1.19356 -4.86542,4.06241 -4.55506,7.58904 0.28834,3.27581 2.77389,5.39882 7.42447,6.20527 -0.69506,0.36788 -1.23039,0.63881 -1.75416,0.93059 a 16.911637,16.911637 0 0 0 -5.4356,4.72758 c -0.47199,0.63722 -0.7965,0.68855 -1.51527,0.24901 -9.34984,-5.71764 -9.95071,-20.06705 0.25989,-26.3136 z m -6.99797,35.32981 c -1.50201,0.38126 -2.95751,0.94567 -4.49289,1.44925 0.75102,-5.06703 6.6847,-9.73349 11.70252,-9.20115 a 12.933098,12.933098 0 0 0 -2.44528,6.85086 c -1.6674,0.30708 -3.23876,0.51366 -4.76435,0.90091 z m 31.95902,-49.471792 c 1.48429,0.05454 2.97127,0.03199 4.45665,0.06715 a 7.686675,7.686675 0 0 1 1.10262,0.153641 10.743935,10.743935 0 0 1 -1.1207,1.437534 c -0.53101,0.494797 -1.13096,0.978588 -1.89603,0.226483 -0.18401,-0.180901 -0.61875,-0.13938 -0.93892,-0.143595 -1.47699,-0.01941 -2.95593,-0.06661 -4.43072,-0.01093 a 27.52725,27.52725 0 0 0 -3.81661,0.389731 c -0.23645,0.04246 -0.58999,0.828543 -0.4813,1.118394 0.25646,0.684027 0.63058,1.438354 1.18477,1.875843 2.04796,1.616604 4.22593,3.068108 6.28333,4.6736 1.99919,1.560141 3.86,3.269721 4.99401,5.623191 1.47751,3.06652 1.52056,6.282 0.88339,9.51177 -1.0637,5.39168 -3.79227,9.85864 -8.21055,13.10322 -1.78033,1.30731 -3.98463,2.04923 -6.02377,2.98847 -1.79334,0.82616 -3.63934,1.53763 -5.43692,2.35501 -3.24088,1.47359 -5.06227,4.99136 -4.52649,8.6487 0.49172,3.35624 3.43614,6.15711 6.80905,6.73523 4.04601,0.69363 8.22087,-1.93577 9.21067,-6.04838 1.11303,-4.62438 -1.39959,-8.75321 -6.10261,-10.00469 -0.20709,-0.0551 -0.41497,-0.10729 -0.84699,-0.21878 1.25807,-0.56211 2.34458,-0.96258 3.34778,-1.51458 q 2.62501,-1.44447 5.15435,-3.05911 c 0.49588,-0.31724 0.76379,-0.3174 1.1867,0.0482 3.23454,2.79664 5.16414,6.27539 5.70522,10.54073 0.895478,7.06014 -2.44663,13.54614 -8.7503,16.87037 -9.75255,5.14323 -21.68658,-0.71078 -23.84055,-11.52314 -1.84515,-9.26121 4.69106,-17.66199 12.55765,-19.28389 3.38323,-0.69755 6.477,-2.10598 8.88207,-4.71143 1.55183,-1.68119 2.30409,-3.12368 2.56042,-3.77455 a 10.46824,10.46824 0 0 0 0.71996,-3.82826 8.9606437,8.9606437 0 0 0 -0.7846,-3.2803 c -0.82126,-1.87193 -3.96742,-4.84982 -4.74636,-5.47794 l -7.40833,-5.799931 c -0.2613,-0.21499 -0.55547,-0.199406 -1.19271,-0.156224 -0.757,0.05131 -2.69214,0.158454 -3.52717,-0.06036 0.67549,-0.511202 2.51704,-1.255475 3.30783,-1.853936 -2.40067,-1.621816 -5.14086,-1.036055 -7.65731,-1.520322 0.58187,-1.083707 3.46101,-2.749021 5.09852,-2.934494 a 24.218106,24.218106 0 0 0 -0.44651,-2.720185 c -0.1,-0.368221 -0.51096,-0.72517 -0.86953,-0.935435 -0.86942,-0.509772 -1.79107,-0.93046 -2.79109,-1.437402 a 5.8039,5.8039 0 0 1 2.99826,-0.927496 11.196108,11.196108 0 0 1 3.00249,0.292523 c 1.78388,0.40759 3.20781,0.141528 4.62704,-1.071033 -1.11707,-0.449845 -2.23401,-0.860822 -3.31735,-1.346915 a 32.554333,32.554333 0 0 1 -3.11653,-1.629383 c 2.81041,0.390392 5.52874,1.444228 8.40238,1.059233 q 0.0367,-0.195919 0.0734,-0.391822 c -2.14826,-0.500036 -4.29657,-1.000072 -6.67517,-1.553739 3.97933,-0.364305 7.68403,-0.424392 11.19214,1.284314 0.98716,0.480827 2.02004,0.878813 2.96624,1.428009 0.46151,0.267864 0.77221,0.795814 1.15083,1.206341 0.30073,0.326099 0.54227,0.762979 0.91176,0.959485 1.40229,0.745702 2.94587,0.774991 4.51855,0.737632 0.0117,-0.179107 0.0228,-0.346974 0.0346,-0.527394 1.58276,0.494586 3.364178,2.31984 3.361267,3.652838 -2.564107,0 -5.126037,-0.0098 -7.687737,0.01426 -0.27379,0.0026 -0.54573,0.202572 -0.81851,0.310991 0.25925,0.15099 0.51403,0.423174 0.77848,0.432911 z"
     id="path10"
     style="fill:#88171a;fill-opacity:1;stroke-width:0.264583" />
  <path
     style="stroke-width:0.264583"
     class="a"
     d="m 48.626518,7.118879 a 0.39174208,0.39174208 0 0 0 -0.0501,0.626692 0.59070875,0.59070875 0 0 0 0.8129,0.217461 c 0.24681,-0.124492 0.4889,-0.257008 0.78714,-0.41447 -0.24021,-0.205052 -0.43291,-0.374332 -0.63122,-0.537739 -0.34872,-0.287338 -0.63791,-0.106855 -0.91873,0.108037 z"
     id="path12" />
</svg>
